# xmcd
#
# Track frame offsets:
#	150
#	17857
#	36442
#	52570
#	74837
#	96307
#	118375
#	137120
#	156145
#	173970
#	186677
#	213142
#
# Disc length: 3131 seconds
#
# Revision: 0
# Processed by: cddbd v1.4PL0 Copyright (c) Steve Scherf et al.
# Submitted via: audiograbber 1.81.01
#
DISCID=b70c390c
DTITLE=Formula 3 - I Grandi Successi Originali cd1
DYEAR=1900
DGENRE=pop
TTITLE0=Questo folle sentimento
TTITLE1=Io ritorno solo
TTITLE2=Non è Francesca
TTITLE3=Nessuno nessuno
TTITLE4=Il vento
TTITLE5=La folle corsa
TTITLE6=Sole Giallo, sole nero
TTITLE7=Tu sei bianca, sei rosa, mi perderò
TTITLE8=Un papavero
TTITLE9=Vendo casa
TTITLE10=Mi chiamo Antonio
TTITLE11=Sognando è risognando
EXTD=
EXTT0=
EXTT1=
EXTT2=
EXTT3=
EXTT4=
EXTT5=
EXTT6=
EXTT7=
EXTT8=
EXTT9=
EXTT10=
EXTT11=
PLAYORDER=
